TITLE ""
FILE "Step3_Track02.mp3" MP3
  TRACK 01 AUDIO
    TITLE "Step3_Track02_01"
    INDEX 01 00:00:00
  TRACK 02 AUDIO
    TITLE "Step3_Track02_02"
    INDEX 01 00:00:24
  TRACK 03 AUDIO
    TITLE "Step3_Track02_03"
    INDEX 01 00:01:47
  TRACK 04 AUDIO
    TITLE "Step3_Track02_04"
    INDEX 01 00:02:21
  TRACK 05 AUDIO
    TITLE "Step3_Track02_05"
    INDEX 01 00:03:20
  TRACK 06 AUDIO
    TITLE "Step3_Track02_06"
    INDEX 01 00:03:46
  TRACK 07 AUDIO
    TITLE "Step3_Track02_07"
    INDEX 01 00:06:34
  TRACK 08 AUDIO
    TITLE "Step3_Track02_08"
    INDEX 01 00:06:60
  TRACK 09 AUDIO
    TITLE "Step3_Track02_09"
    INDEX 01 00:07:55
  TRACK 10 AUDIO
    TITLE "Step3_Track02_10"
    INDEX 01 00:07:65
  TRACK 11 AUDIO
    TITLE "Step3_Track02_11"
    INDEX 01 00:09:70
  TRACK 12 AUDIO
    TITLE "Step3_Track02_12"
    INDEX 01 00:10:19
  TRACK 13 AUDIO
    TITLE "Step3_Track02_13"
    INDEX 01 00:11:12
  TRACK 14 AUDIO
    TITLE "Step3_Track02_14"
    INDEX 01 00:11:34
  TRACK 15 AUDIO
    TITLE "Step3_Track02_15"
    INDEX 01 00:14:01
  TRACK 16 AUDIO
    TITLE "Step3_Track02_16"
    INDEX 01 00:14:20
  TRACK 17 AUDIO
    TITLE "Step3_Track02_17"
    INDEX 01 00:15:18
  TRACK 18 AUDIO
    TITLE "Step3_Track02_18"
    INDEX 01 00:15:41
  TRACK 19 AUDIO
    TITLE "Step3_Track02_19"
    INDEX 01 00:18:63
  TRACK 20 AUDIO
    TITLE "Step3_Track02_20"
    INDEX 01 00:19:21
  TRACK 21 AUDIO
    TITLE "Step3_Track02_21"
    INDEX 01 00:20:13
  TRACK 22 AUDIO
    TITLE "Step3_Track02_22"
    INDEX 01 00:20:29
  TRACK 23 AUDIO
    TITLE "Step3_Track02_23"
    INDEX 01 00:23:23
  TRACK 24 AUDIO
    TITLE "Step3_Track02_24"
    INDEX 01 00:23:68
  TRACK 25 AUDIO
    TITLE "Step3_Track02_25"
    INDEX 01 00:24:70
  TRACK 26 AUDIO
    TITLE "Step3_Track02_26"
    INDEX 01 00:25:10
  TRACK 27 AUDIO
    TITLE "Step3_Track02_27"
    INDEX 01 00:27:62
  TRACK 28 AUDIO
    TITLE "Step3_Track02_28"
    INDEX 01 00:28:38
  TRACK 29 AUDIO
    TITLE "Step3_Track02_29"
    INDEX 01 00:29:43
  TRACK 30 AUDIO
    TITLE "Step3_Track02_30"
    INDEX 01 00:29:51
  TRACK 31 AUDIO
    TITLE "Step3_Track02_31"
    INDEX 01 00:31:62
  TRACK 32 AUDIO
    TITLE "Step3_Track02_32"
    INDEX 01 00:32:16
  TRACK 33 AUDIO
    TITLE "Step3_Track02_33"
    INDEX 01 00:33:08
  TRACK 34 AUDIO
    TITLE "Step3_Track02_34"
    INDEX 01 00:33:18
  TRACK 35 AUDIO
    TITLE "Step3_Track02_35"
    INDEX 01 00:34:58
  TRACK 36 AUDIO
    TITLE "Step3_Track02_36"
    INDEX 01 00:35:11
  TRACK 37 AUDIO
    TITLE "Step3_Track02_37"
    INDEX 01 00:36:12
  TRACK 38 AUDIO
    TITLE "Step3_Track02_38"
    INDEX 01 00:36:20
  TRACK 39 AUDIO
    TITLE "Step3_Track02_39"
    INDEX 01 00:39:20
  TRACK 40 AUDIO
    TITLE "Step3_Track02_40"
    INDEX 01 00:39:42
  TRACK 41 AUDIO
    TITLE "Step3_Track02_41"
    INDEX 01 00:40:39
  TRACK 42 AUDIO
    TITLE "Step3_Track02_42"
    INDEX 01 00:40:45
  TRACK 43 AUDIO
    TITLE "Step3_Track02_43"
    INDEX 01 00:42:69
